<svg width="101" height="67" viewBox="0 0 101 67" fill="none" xmlns="http://www.w3.org/2000/svg">
<path d="M15.2441 10.3609C15.2652 10.3609 15.3128 10.3662 15.3867 10.3768C15.4607 10.3768 15.5347 10.3874 15.6086 10.4086C15.6931 10.4298 15.7672 10.4563 15.8306 10.4882C15.894 10.52 15.9257 10.5678 15.9257 10.6314C15.9257 10.7163 15.8834 10.8543 15.7988 11.0452C15.7249 11.2256 15.6245 11.4484 15.4976 11.7137C15.3814 11.979 15.2441 12.2814 15.0855 12.6209C14.9376 12.9497 14.7843 13.2946 14.6259 13.6553C13.8861 15.3424 13.1727 17.0188 12.4859 18.6846C11.799 20.3504 11.1121 22.0427 10.4251 23.7615C11.4291 23.7192 12.3537 23.5229 13.1992 23.1728C14.0551 22.812 14.8319 22.3451 15.5294 21.7722C16.2268 21.1886 16.8398 20.5254 17.3682 19.7827C17.9071 19.04 18.3563 18.2602 18.7156 17.4432C19.0748 16.6156 19.3444 15.7774 19.524 14.9286C19.7142 14.0798 19.8093 13.2627 19.8093 12.4776C19.8093 11.9153 19.7248 11.4113 19.5557 10.9656C19.3972 10.5094 19.1647 10.1222 18.8582 9.80382C18.5518 9.48557 18.1819 9.24147 17.7486 9.0717C17.3259 8.89136 16.8451 8.80117 16.3061 8.80117C14.9746 8.80117 13.754 9.02399 12.6444 9.46963C11.5453 9.91527 10.5995 10.5413 9.80692 11.3476C9.02489 12.1434 8.41197 13.1037 7.96812 14.2283C7.53484 15.353 7.3182 16.5944 7.3182 17.9525C7.3182 18.1328 7.27593 18.292 7.19139 18.43C7.10685 18.5679 6.96418 18.6369 6.76339 18.6369C6.62601 18.6369 6.44636 18.5838 6.22443 18.4777C6.00251 18.361 5.78059 18.2124 5.55866 18.032C5.34731 17.8411 5.16237 17.6235 5.00386 17.3795C4.85591 17.1249 4.78193 16.8596 4.78193 16.5838C4.78193 15.8305 4.95101 15.093 5.28918 14.3715C5.62735 13.6395 6.08177 12.9445 6.65243 12.2866C7.23366 11.6288 7.91 11.024 8.68145 10.4723C9.45288 9.92052 10.2666 9.4431 11.1226 9.03991C11.9892 8.63671 12.8769 8.32371 13.7857 8.1009C14.7051 7.86747 15.5981 7.75076 16.4646 7.75076C17.5954 7.75076 18.5835 7.8993 19.4289 8.19639C20.2849 8.48286 20.9983 8.88605 21.5689 9.40598C22.1396 9.92586 22.5675 10.5465 22.8529 11.268C23.1382 11.979 23.2809 12.7641 23.2809 13.6235C23.2809 14.4405 23.1541 15.2362 22.9004 16.0108C22.6468 16.7747 22.2981 17.5016 21.8542 18.1912C21.4209 18.8809 20.9031 19.5281 20.3007 20.1329C19.6984 20.7377 19.0432 21.2947 18.3351 21.804C17.6377 22.3027 16.9032 22.743 16.1318 23.125C15.3603 23.5069 14.5836 23.8253 13.8016 24.0799C14.2454 24.1754 14.6734 24.3346 15.0855 24.5573C15.5083 24.7695 15.8781 25.0401 16.1952 25.369C16.5228 25.6873 16.7817 26.064 16.9719 26.499C17.1621 26.9234 17.2572 27.3903 17.2572 27.8996C17.2572 28.95 17.0722 29.8784 16.7024 30.6847C16.3325 31.4911 15.8411 32.1914 15.2282 32.7855C14.6152 33.3798 13.9072 33.8785 13.104 34.2816C12.3009 34.6848 11.4608 35.0084 10.5836 35.2524C9.7171 35.5071 8.84525 35.6875 7.96812 35.7936C7.09099 35.8997 6.26671 35.9527 5.49526 35.9527C5.09368 35.9527 4.71324 35.9474 4.35393 35.9368C3.99463 35.9262 3.64061 35.9049 3.29187 35.8732C2.94313 35.852 2.59968 35.8148 2.26151 35.7617C1.91277 35.7087 1.55347 35.6397 1.18359 35.5548C1.06734 35.523 0.966957 35.47 0.882411 35.3957C0.797869 35.3214 0.766165 35.2259 0.787301 35.1092C0.819004 34.9076 0.903544 34.7431 1.04093 34.6158C1.16774 34.4991 1.37382 34.4673 1.65914 34.5204C1.77539 34.5416 1.93391 34.5628 2.1347 34.584C2.33548 34.6158 2.55741 34.6477 2.80047 34.6795C3.61419 32.8333 4.3962 31.0031 5.14652 29.1887C5.9074 27.3744 6.62601 25.6396 7.30235 23.9844C7.98926 22.3186 8.62333 20.7589 9.20453 19.3053C9.79637 17.8517 10.3247 16.5572 10.7897 15.4219C11.2547 14.2867 11.6563 13.3423 11.9945 12.589C12.3326 11.825 12.5915 11.3105 12.7712 11.0452C12.8346 10.9604 12.9614 10.8755 13.1516 10.7906C13.3524 10.7057 13.5743 10.6314 13.8174 10.5678C14.0605 10.5041 14.3088 10.4563 14.5624 10.4246C14.8266 10.3821 15.0539 10.3609 15.2441 10.3609ZM13.8332 27.8041C13.8332 27.2735 13.7382 26.812 13.5479 26.4195C13.3577 26.0269 13.0935 25.6979 12.7553 25.4327C12.4277 25.1675 12.0314 24.9712 11.5665 24.8439C11.1121 24.7059 10.6154 24.6263 10.0764 24.6051C9.42123 26.2922 8.77656 27.9898 8.14249 29.698C7.51899 31.4062 6.89549 33.1675 6.27199 34.9819C7.29707 34.9501 8.2693 34.7696 9.18875 34.4408C10.1081 34.1225 10.9112 33.6609 11.5981 33.0562C12.285 32.4619 12.8293 31.7246 13.2309 30.8439C13.6325 29.9633 13.8332 28.95 13.8332 27.8041ZM31.0007 27.0243C30.8738 27.3425 30.6995 27.6926 30.4776 28.0746C30.2662 28.4566 30.0073 28.8121 29.7008 29.1409C29.4049 29.4593 29.0667 29.7298 28.6863 29.9526C28.3059 30.1754 27.8779 30.2869 27.4023 30.2869C27.2649 30.2869 27.1328 30.2763 27.006 30.255C26.8898 30.2338 26.7736 30.1967 26.6572 30.1437C26.3614 30.5893 26.0444 31.0083 25.7062 31.4009C25.3786 31.7935 25.0246 32.1384 24.6441 32.4354C24.2636 32.7219 23.8621 32.9501 23.4394 33.1198C23.0273 33.2896 22.594 33.3744 22.1396 33.3744C21.7168 33.3744 21.3417 33.3002 21.014 33.1516C20.6971 33.0031 20.4275 32.7962 20.2056 32.5309C19.9838 32.2657 19.8199 31.9527 19.7142 31.5919C19.598 31.2205 19.5399 30.8174 19.5399 30.3823C19.5399 29.9685 19.598 29.4752 19.7142 28.9023C19.8199 28.3293 20.0049 27.7245 20.2691 27.0879C20.5227 26.4512 20.8503 25.804 21.2518 25.1462C21.664 24.4884 22.166 23.8677 22.7577 23.2841C23.3496 22.6899 24.0365 22.1594 24.8185 21.6926C25.6111 21.2151 26.5146 20.8384 27.5291 20.5626H27.656C27.7933 20.5626 27.9201 20.5891 28.0363 20.6422C28.1527 20.6952 28.253 20.7642 28.3375 20.849C28.4221 20.934 28.4855 21.0241 28.5278 21.1197C28.5807 21.2151 28.6071 21.3 28.6071 21.3743C28.6071 21.544 28.5595 21.6661 28.4644 21.7403C28.3693 21.8147 28.2318 21.8676 28.0522 21.8995C27.9572 21.9207 27.7933 21.9525 27.5608 21.995C27.3389 22.0268 27.0589 22.117 26.7207 22.2655C26.3931 22.4034 26.0232 22.6263 25.6111 22.934C25.199 23.2311 24.7656 23.6502 24.3112 24.1913C24.0047 24.5521 23.7088 24.9871 23.4235 25.4964C23.1487 25.995 22.9057 26.515 22.6943 27.056C22.483 27.5972 22.3086 28.1383 22.1712 28.6794C22.0444 29.2099 21.981 29.6874 21.981 30.1118C21.981 30.6741 22.1131 31.1144 22.3774 31.4328C22.6415 31.7511 22.9532 31.9102 23.3126 31.9102C23.7036 31.9102 24.121 31.7033 24.5648 31.2895C25.0192 30.8651 25.4684 30.3028 25.9123 29.6025C25.7009 29.3372 25.5265 29.0084 25.3891 28.6158C25.2518 28.2232 25.1831 27.7563 25.1831 27.2152C25.1831 26.621 25.257 26.0269 25.405 25.4327C25.5636 24.8385 25.7696 24.3027 26.0232 23.8253C26.2769 23.3478 26.5622 22.9605 26.8792 22.6634C27.2068 22.3557 27.5397 22.2019 27.8779 22.2019C28.2054 22.2019 28.4485 22.3504 28.6071 22.6475C28.7762 22.934 28.8607 23.316 28.8607 23.7934C28.8607 24.1118 28.8184 24.4937 28.7339 24.9393C28.6493 25.3743 28.5278 25.8465 28.3693 26.3558C28.2107 26.8651 28.0152 27.3903 27.7828 27.9314C27.5608 28.4726 27.3019 29.003 27.006 29.5229C27.1539 29.5972 27.3283 29.6344 27.5291 29.6344C27.899 29.6344 28.2266 29.5494 28.5119 29.3797C28.8078 29.2099 29.072 28.9924 29.3045 28.7271C29.537 28.4619 29.7484 28.1648 29.9386 27.8359C30.1288 27.507 30.3085 27.1833 30.4776 26.8651C30.5833 26.6423 30.6942 26.5308 30.8104 26.5308C30.8738 26.5308 30.932 26.5521 30.9848 26.5945C31.0377 26.6369 31.0641 26.69 31.0641 26.7536C31.0641 26.8492 31.0429 26.9393 31.0007 27.0243ZM26.1025 27.6449C26.1025 27.8996 26.1183 28.133 26.15 28.3452C26.1817 28.5574 26.2399 28.7377 26.3244 28.8863C26.5358 28.5149 26.7313 28.1383 26.9109 27.7563C27.0905 27.3638 27.2649 26.9553 27.434 26.5308C27.5819 26.1382 27.6929 25.8146 27.7669 25.56C27.8408 25.2948 27.8779 25.0879 27.8779 24.9393C27.8779 24.5892 27.7617 24.4141 27.5291 24.4141C27.3706 24.4141 27.2068 24.499 27.0377 24.6688C26.8792 24.8385 26.726 25.0719 26.5781 25.369C26.4406 25.6662 26.3244 26.0109 26.2292 26.4035C26.1448 26.7855 26.1025 27.1993 26.1025 27.6449ZM39.4337 27.3107C39.2858 27.5972 39.0956 27.9314 38.8631 28.3134C38.6306 28.6847 38.3664 29.072 38.0705 29.4752C37.7746 29.8678 37.4522 30.2604 37.1035 30.6529C36.7654 31.0455 36.4114 31.3956 36.0415 31.7033C35.6822 32.0005 35.3123 32.2445 34.9318 32.4354C34.562 32.6265 34.2027 32.7219 33.8539 32.7219C33.632 32.7219 33.4101 32.6901 33.1881 32.6265C32.9769 32.5627 32.7814 32.4673 32.6016 32.34C32.4325 32.202 32.2952 32.0322 32.1895 31.8306C32.0838 31.6291 32.031 31.3851 32.031 31.0986C32.031 30.706 32.105 30.2921 32.2529 29.8572C32.4114 29.4115 32.6069 28.9659 32.8394 28.5203C33.0825 28.064 33.3361 27.6184 33.6004 27.1833C33.8751 26.7484 34.1287 26.3345 34.3612 25.9419C34.6042 25.5388 34.7997 25.1727 34.9477 24.8439C35.1062 24.5149 35.1855 24.2285 35.1855 23.9844C35.1855 23.8889 35.1273 23.8146 35.0111 23.7615C34.9054 23.6979 34.7575 23.6661 34.5672 23.6661C34.4722 23.6661 34.3453 23.682 34.1869 23.7138C34.0389 23.7457 33.8698 23.7828 33.6796 23.8253C33.4893 23.8677 33.2833 23.9155 33.0614 23.9685C32.85 24.0109 32.6387 24.048 32.4273 24.0799C32.0997 24.8756 31.7721 25.6184 31.4445 26.308C31.1169 26.9977 30.8368 27.5388 30.6044 27.9314C30.5199 28.08 30.4511 28.1861 30.3983 28.2497C30.3349 28.3028 30.2609 28.3293 30.1764 28.3293C30.0284 28.3293 29.9544 28.2603 29.9544 28.1223C29.9544 28.0694 29.965 28.011 29.9862 27.9473C29.9967 27.8731 30.0178 27.8041 30.0496 27.7404C30.356 27.1675 30.6466 26.5839 30.9214 25.9897C31.2067 25.3849 31.4815 24.7749 31.7457 24.1595C31.5026 24.1595 31.3282 24.1118 31.2225 24.0162C31.1169 23.9101 31.0641 23.751 31.0641 23.5387C31.0641 23.316 31.1169 23.0401 31.2225 22.7112C31.3389 22.3717 31.4815 22.0215 31.6506 21.6607C31.8197 21.2894 32.0099 20.9234 32.2213 20.5626C32.4325 20.1913 32.6439 19.8623 32.8553 19.5759C33.0667 19.2788 33.2569 19.04 33.4259 18.8597C33.6056 18.6686 33.7482 18.5732 33.8539 18.5732C33.9385 18.5732 34.023 18.605 34.1076 18.6686C34.1921 18.7324 34.2344 18.8226 34.2344 18.9393C34.2344 19.0984 34.1869 19.3477 34.0917 19.6872C33.9966 20.0267 33.8751 20.4193 33.7271 20.865C34.171 20.8013 34.5567 20.7536 34.8843 20.7217C35.2225 20.6793 35.4814 20.6581 35.661 20.6581C36.0943 20.6581 36.4536 20.743 36.7389 20.9128C37.0243 21.0719 37.1669 21.2841 37.1669 21.5494C37.1669 21.7085 37.1088 21.9525 36.9926 22.2815C36.8764 22.5997 36.7337 22.9711 36.5646 23.3955C36.3955 23.8199 36.2106 24.2815 36.0097 24.7801C35.809 25.2682 35.6241 25.7669 35.455 26.2762C35.2859 26.7749 35.1432 27.2629 35.027 27.7404C34.9107 28.2179 34.8526 28.6529 34.8526 29.0455C34.8526 29.3531 34.9107 29.6131 35.027 29.8253C35.1538 30.0375 35.344 30.1437 35.5976 30.1437C35.7878 30.1437 35.9992 30.1012 36.2317 30.0163C36.4748 29.9208 36.7389 29.7617 37.0243 29.5388C37.3096 29.3054 37.6108 28.9924 37.9278 28.5999C38.2555 28.1967 38.5936 27.6926 38.9424 27.0879C39.0269 26.9181 39.1273 26.8332 39.2435 26.8332C39.3069 26.8332 39.365 26.8545 39.4179 26.8969C39.4707 26.9393 39.4971 27.003 39.4971 27.0879C39.4971 27.1516 39.476 27.2258 39.4337 27.3107ZM47.6291 13.8781C47.5551 14.0161 47.4283 14.2548 47.2486 14.5943C47.0795 14.9232 46.8735 15.3264 46.6304 15.8039C46.3874 16.2814 46.1179 16.8172 45.822 17.4114C45.5261 17.9949 45.2196 18.6103 44.9026 19.2575C45.3781 19.2257 45.8061 19.1939 46.1866 19.1621C46.5776 19.1196 46.8576 19.0984 47.0267 19.0984C47.0795 19.0984 47.1165 19.1196 47.1377 19.1621C47.1693 19.1939 47.1852 19.2363 47.1852 19.2894C47.1852 19.3742 47.1588 19.4644 47.1059 19.5599C47.0637 19.6554 47.0267 19.7297 46.995 19.7827C46.8682 19.9737 46.7308 20.1753 46.5828 20.3876C46.4455 20.5891 46.2975 20.7801 46.1391 20.9605C45.9805 21.1408 45.8167 21.2947 45.6476 21.4221C45.4785 21.5494 45.2989 21.6236 45.1087 21.6448C44.7705 21.7085 44.3161 21.7085 43.7454 21.6448C43.4812 22.186 43.2223 22.7271 42.9686 23.2682C42.7256 23.7988 42.4931 24.308 42.2712 24.7961C42.0598 25.2842 41.8643 25.7456 41.6847 26.1807C41.5156 26.6052 41.3676 26.9818 41.2408 27.3107C40.9449 28.1383 40.6913 28.8439 40.48 29.4275C40.2686 30.0004 40.1629 30.5044 40.1629 30.9394C40.1629 31.2153 40.2369 31.4434 40.3848 31.6237C40.5434 31.7935 40.8076 31.8784 41.1774 31.8784C41.4205 31.8784 41.7164 31.7404 42.0651 31.4646C42.4244 31.1781 42.7943 30.8068 43.1748 30.3505C43.5552 29.8943 43.9303 29.3797 44.3002 28.8067C44.6701 28.2338 44.9924 27.6609 45.2672 27.0879C45.3517 26.9181 45.4468 26.8332 45.5525 26.8332C45.6265 26.8332 45.6899 26.8545 45.7427 26.8969C45.7956 26.9393 45.822 27.003 45.822 27.0879C45.822 27.1516 45.8009 27.2258 45.7586 27.3107C45.3781 28.1489 44.9607 28.9394 44.5063 29.6821C44.0519 30.4142 43.5816 31.0561 43.0955 31.6079C42.6094 32.1489 42.1127 32.5787 41.6054 32.897C41.1087 33.2152 40.6173 33.3744 40.1313 33.3744C39.4443 33.3744 38.9529 33.1835 38.657 32.8015C38.3505 32.4195 38.1973 31.8625 38.1973 31.1304C38.1973 30.5999 38.2555 30.027 38.3717 29.4115C38.4774 28.7961 38.6517 28.1012 38.8948 27.3266C39.1379 26.5521 39.4602 25.6767 39.8617 24.7005C40.2633 23.7244 40.7548 22.6051 41.336 21.3425C41.0929 21.2894 40.8604 21.2416 40.6385 21.1992C40.4166 21.1568 40.2158 21.1091 40.0361 21.056C39.9093 21.0241 39.8089 21.003 39.7349 20.9923C39.661 20.9817 39.624 20.9499 39.624 20.8968C39.624 20.7801 39.6557 20.674 39.7191 20.5785C39.7931 20.483 39.8881 20.3716 40.0044 20.2443C40.0572 20.1594 40.1206 20.0586 40.1947 19.9419C40.2792 19.8252 40.3795 19.751 40.4958 19.7191C40.5804 19.6979 40.7759 19.666 41.0823 19.6236C41.3994 19.5812 41.7904 19.5281 42.2553 19.4644C42.6992 18.5413 43.18 17.5599 43.6978 16.5201C44.2156 15.4697 44.7916 14.3291 45.4257 13.0983C45.542 12.8755 45.6635 12.6633 45.7902 12.4617C45.9171 12.2495 46.0439 12.0638 46.1707 11.9046C46.2975 11.7455 46.4191 11.6182 46.5353 11.5227C46.6621 11.4272 46.7783 11.3795 46.884 11.3795C47.0109 11.3795 47.1324 11.4431 47.2486 11.5704C47.3649 11.6871 47.46 11.8357 47.5339 12.0161C47.6185 12.1964 47.6819 12.3874 47.7242 12.589C47.7771 12.78 47.8035 12.9497 47.8035 13.0983C47.8035 13.2999 47.7876 13.459 47.7559 13.5757C47.7242 13.6818 47.6819 13.7827 47.6291 13.8781ZM55.761 27.0243C55.6342 27.3425 55.4598 27.6926 55.2379 28.0746C55.0265 28.4566 54.7676 28.8121 54.4612 29.1409C54.1653 29.4593 53.8271 29.7298 53.4467 29.9526C53.0662 30.1754 52.6382 30.2869 52.1627 30.2869C52.0253 30.2869 51.8932 30.2763 51.7664 30.255C51.6501 30.2338 51.5339 30.1967 51.4177 30.1437C51.1218 30.5893 50.8047 31.0083 50.4665 31.4009C50.1389 31.7935 49.7849 32.1384 49.4045 32.4354C49.024 32.7219 48.6225 32.9501 48.1997 33.1198C47.7876 33.2896 47.3543 33.3744 46.8999 33.3744C46.4772 33.3744 46.102 33.3002 45.7745 33.1516C45.4574 33.0031 45.1879 32.7962 44.966 32.5309C44.7441 32.2657 44.5802 31.9527 44.4746 31.5919C44.3584 31.2205 44.3002 30.8174 44.3002 30.3823C44.3002 29.9685 44.3584 29.4752 44.4746 28.9023C44.5802 28.3293 44.7652 27.7245 45.0294 27.0879C45.283 26.4512 45.6106 25.804 46.0122 25.1462C46.4244 24.4884 46.9263 23.8677 47.5182 23.2841C48.1099 22.6899 48.7968 22.1594 49.5788 21.6926C50.3714 21.2151 51.275 20.8384 52.2895 20.5626H52.4163C52.5536 20.5626 52.6805 20.5891 52.7968 20.6422C52.913 20.6952 53.0134 20.7642 53.098 20.849C53.1825 20.934 53.2458 21.0241 53.2881 21.1197C53.341 21.2151 53.3674 21.3 53.3674 21.3743C53.3674 21.544 53.3199 21.6661 53.2247 21.7403C53.1296 21.8147 52.9923 21.8676 52.8126 21.8995C52.7175 21.9207 52.5536 21.9525 52.3212 21.995C52.0992 22.0268 51.8192 22.117 51.4811 22.2655C51.1534 22.4034 50.7836 22.6263 50.3714 22.934C49.9593 23.2311 49.526 23.6502 49.0716 24.1913C48.7651 24.5521 48.4692 24.9871 48.1839 25.4964C47.9092 25.995 47.666 26.515 47.4547 27.056C47.2434 27.5972 47.069 28.1383 46.9316 28.6794C46.8048 29.2099 46.7414 29.6874 46.7414 30.1118C46.7414 30.6741 46.8735 31.1144 47.1377 31.4328C47.4019 31.7511 47.7137 31.9102 48.0729 31.9102C48.464 31.9102 48.8814 31.7033 49.3252 31.2895C49.7797 30.8651 50.2287 30.3028 50.6726 29.6025C50.4612 29.3372 50.2869 29.0084 50.1495 28.6158C50.0121 28.2232 49.9434 27.7563 49.9434 27.2152C49.9434 26.621 50.0174 26.0269 50.1653 25.4327C50.3239 24.8385 50.5299 24.3027 50.7836 23.8253C51.0372 23.3478 51.3225 22.9605 51.6396 22.6634C51.9672 22.3557 52.3001 22.2019 52.6382 22.2019C52.9658 22.2019 53.2089 22.3504 53.3674 22.6475C53.5365 22.934 53.621 23.316 53.621 23.7934C53.621 24.1118 53.5788 24.4937 53.4942 24.9393C53.4097 25.3743 53.2881 25.8465 53.1296 26.3558C52.9711 26.8651 52.7756 27.3903 52.5431 27.9314C52.3212 28.4726 52.0623 29.003 51.7664 29.5229C51.9144 29.5972 52.0887 29.6344 52.2895 29.6344C52.6593 29.6344 52.9869 29.5494 53.2723 29.3797C53.5681 29.2099 53.8324 28.9924 54.0648 28.7271C54.2973 28.4619 54.5087 28.1648 54.6989 27.8359C54.8892 27.507 55.0688 27.1833 55.2379 26.8651C55.3436 26.6423 55.4545 26.5308 55.5707 26.5308C55.6342 26.5308 55.6923 26.5521 55.7451 26.5945C55.798 26.6369 55.8244 26.69 55.8244 26.7536C55.8244 26.8492 55.8033 26.9393 55.761 27.0243ZM50.8628 27.6449C50.8628 27.8996 50.8787 28.133 50.9104 28.3452C50.9421 28.5574 51.0002 28.7377 51.0847 28.8863C51.2961 28.5149 51.4916 28.1383 51.6712 27.7563C51.8509 27.3638 52.0253 26.9553 52.1944 26.5308C52.3423 26.1382 52.4533 25.8146 52.5272 25.56C52.6013 25.2948 52.6382 25.0879 52.6382 24.9393C52.6382 24.5892 52.522 24.4141 52.2895 24.4141C52.131 24.4141 51.9672 24.499 51.7981 24.6688C51.6396 24.8385 51.4864 25.0719 51.3384 25.369C51.201 25.6662 51.0847 26.0109 50.9897 26.4035C50.9051 26.7855 50.8628 27.1993 50.8628 27.6449ZM66.017 10.5359C66.017 11.0134 65.9113 11.597 65.7001 12.2866C65.4992 12.9763 65.2086 13.7455 64.8282 14.5943C64.4583 15.4325 64.0092 16.3398 63.4808 17.3159C62.9524 18.292 62.3659 19.3053 61.7213 20.3557C61.0871 21.3955 60.4003 22.4565 59.6605 23.5387C58.9208 24.6104 58.1493 25.6714 57.3462 26.7219C57.3144 27.0295 57.2933 27.3319 57.2828 27.629C57.2828 27.9155 57.2828 28.1913 57.2828 28.4566C57.2828 28.8598 57.2987 29.2258 57.3303 29.5548C57.362 29.873 57.4201 30.1542 57.5047 30.3983C57.5998 30.6317 57.7266 30.812 57.8852 30.9394C58.0436 31.0667 58.2444 31.1304 58.4875 31.1304C58.6883 31.1304 58.8944 31.0614 59.1057 30.9235C59.3277 30.7749 59.5443 30.584 59.7557 30.3505C59.967 30.1171 60.1678 29.8518 60.358 29.5548C60.5588 29.2577 60.7437 28.9606 60.9128 28.6635C61.0819 28.3664 61.2351 28.08 61.3725 27.8041C61.5099 27.5282 61.6156 27.2895 61.6895 27.0879C61.7424 26.9712 61.8005 26.9022 61.8639 26.881C61.9379 26.8492 61.9907 26.8332 62.0224 26.8332C62.0859 26.8332 62.1386 26.8598 62.1809 26.9128C62.2232 26.9659 62.2443 27.0349 62.2443 27.1197C62.2443 27.1622 62.2232 27.2258 62.1809 27.3107C61.8217 28.1701 61.436 28.9659 61.0238 29.698C60.6116 30.4301 60.1889 31.0614 59.7557 31.5919C59.3224 32.1224 58.889 32.5362 58.4558 32.8333C58.0331 33.1304 57.6315 33.279 57.251 33.279C56.9552 33.279 56.6698 33.2152 56.3951 33.0879C56.1203 32.9606 55.8719 32.7484 55.65 32.4514C55.4387 32.1543 55.2696 31.7617 55.1428 31.2736C55.0054 30.7749 54.9367 30.1595 54.9367 29.4275C54.9367 28.4195 55.0424 27.3796 55.2538 26.308C55.4545 25.2258 55.724 24.1541 56.0622 23.0932C56.4004 22.0215 56.7808 20.9764 57.2035 19.9578C57.6368 18.9393 58.0754 17.979 58.5192 17.0771C58.9631 16.1752 59.3963 15.353 59.8191 14.6102C60.2417 13.8675 60.617 13.2362 60.9445 12.7163C61.3144 12.1222 61.6737 11.581 62.0224 11.093C62.3817 10.6049 62.7199 10.1911 63.0369 9.85162C63.3645 9.50141 63.6763 9.23622 63.9722 9.05586C64.2681 8.86484 64.5481 8.76934 64.8123 8.76934C65.2034 8.76934 65.4992 8.9338 65.7001 9.26275C65.9113 9.581 66.017 10.0054 66.017 10.5359ZM58.0912 22.8225C57.9644 23.3001 57.8481 23.7563 57.7424 24.1913C57.6474 24.6263 57.5681 25.0454 57.5047 25.4486C58.5087 23.9738 59.3911 22.5626 60.1519 21.2151C60.9128 19.8677 61.5469 18.6475 62.0541 17.5546C62.5614 16.4511 62.9419 15.5069 63.1954 14.7217C63.4491 13.9259 63.5759 13.3423 63.5759 12.971C63.5759 12.7588 63.5495 12.6156 63.4966 12.5413C63.4438 12.4564 63.354 12.4139 63.2272 12.4139C63.0686 12.4139 62.8573 12.5837 62.5931 12.9232C62.3289 13.2521 62.0383 13.6924 61.7213 14.2442C61.4042 14.7959 61.0714 15.4325 60.7226 16.1541C60.3738 16.865 60.0357 17.6077 59.708 18.3822C59.3805 19.1567 59.074 19.9313 58.7887 20.7058C58.5033 21.4698 58.2709 22.1754 58.0912 22.8225ZM73.3881 27.3107C73.1134 27.9473 72.7911 28.5893 72.4212 29.2364C72.0619 29.873 71.6602 30.4461 71.2165 30.9554C70.7726 31.4646 70.2918 31.8837 69.7739 32.2126C69.2561 32.5309 68.7066 32.6901 68.1253 32.6901C67.6921 32.6901 67.3433 32.6211 67.0792 32.4832C66.8255 32.3346 66.63 32.1543 66.4926 31.9421C66.3552 31.7298 66.2602 31.4964 66.2073 31.2418C66.165 30.9765 66.1439 30.7325 66.1439 30.5097C66.1439 30.2656 66.1756 29.9845 66.239 29.6661C66.313 29.3372 66.4345 28.9765 66.6036 28.5839C66.2337 29.0296 65.8585 29.4593 65.4781 29.873C65.0977 30.2763 64.7225 30.637 64.3526 30.9554C63.9933 31.2736 63.6446 31.5283 63.3064 31.7192C62.9683 31.9102 62.6618 32.0057 62.387 32.0057C62.2179 32.0057 62.0436 31.9632 61.8639 31.8784C61.6842 31.7829 61.5258 31.6397 61.3883 31.4487C61.2405 31.2577 61.1189 31.0137 61.0238 30.7166C60.9287 30.4195 60.8811 30.0693 60.8811 29.6661C60.8811 29.1357 60.9815 28.5415 61.1823 27.8837C61.3831 27.2258 61.642 26.5627 61.959 25.8942C62.2655 25.2152 62.6037 24.5573 62.9735 23.9207C63.354 23.2735 63.7186 22.6952 64.0673 22.186C64.416 21.6767 64.7225 21.2576 64.9867 20.9286C65.2614 20.5998 65.4517 20.4141 65.5574 20.3716C65.5785 20.361 65.6313 20.3504 65.7158 20.3397C65.8004 20.3292 65.9061 20.3292 66.0329 20.3397C66.1597 20.3397 66.2971 20.361 66.445 20.4035C66.6036 20.4459 66.7621 20.5202 66.9206 20.6262C67.058 20.7323 67.1531 20.8119 67.2059 20.865C67.2588 20.918 67.2958 20.9711 67.3169 21.0241C67.3697 21.1197 67.3856 21.1992 67.3645 21.2629C67.3539 21.3265 67.3381 21.3796 67.3169 21.4221C67.2852 21.4857 67.169 21.6555 66.9681 21.9314C66.778 22.2071 66.5402 22.552 66.2548 22.9658C65.9801 23.3796 65.6842 23.8465 65.3671 24.3664C65.0607 24.8756 64.77 25.3955 64.4953 25.9261C64.2311 26.4566 64.0092 26.9818 63.8295 27.5017C63.6605 28.011 63.5759 28.4725 63.5759 28.8863C63.5759 29.0985 63.6129 29.247 63.6868 29.332C63.7609 29.4168 63.8559 29.4593 63.9722 29.4593C64.2364 29.4593 64.5376 29.3426 64.8757 29.1091C65.2244 28.8651 65.5838 28.5468 65.9536 28.1542C66.3235 27.751 66.6934 27.2948 67.0633 26.7855C67.4331 26.2656 67.7871 25.7245 68.1253 25.1621C69.0975 23.4964 69.8374 22.2867 70.3446 21.5334C70.8519 20.7801 71.1636 20.4035 71.2799 20.4035C71.3221 20.4035 71.4013 20.4406 71.5176 20.5149C71.6444 20.5785 71.7766 20.6581 71.9139 20.7536C72.0512 20.8384 72.1728 20.9234 72.2785 21.0082C72.3842 21.0825 72.437 21.1303 72.437 21.1514C72.437 21.2788 72.3683 21.4592 72.231 21.6926C72.1041 21.9154 71.9139 22.2444 71.6602 22.6793C71.4066 23.1038 71.0949 23.6555 70.725 24.3346C70.3657 25.0029 69.9536 25.8465 69.4885 26.8651C69.3512 27.1728 69.2139 27.4857 69.0764 27.8041C68.9391 28.1223 68.8175 28.4353 68.7118 28.7431C68.6061 29.0401 68.5163 29.3266 68.4424 29.6025C68.379 29.8784 68.3472 30.1277 68.3472 30.3505C68.3472 30.7218 68.4265 30.9871 68.585 31.1463C68.7541 31.3055 68.9285 31.3851 69.1082 31.3851C69.4992 31.3851 69.8638 31.2577 70.202 31.0031C70.5507 30.7378 70.8783 30.4036 71.1847 30.0004C71.5018 29.5866 71.8029 29.1251 72.0883 28.6158C72.3736 28.1065 72.6431 27.5972 72.8967 27.0879C72.9812 26.9181 73.0816 26.8332 73.1979 26.8332C73.2613 26.8332 73.3194 26.8545 73.3723 26.8969C73.4251 26.9393 73.4515 27.003 73.4515 27.0879C73.4515 27.1197 73.4462 27.1516 73.4357 27.1833C73.4251 27.2152 73.4092 27.2577 73.3881 27.3107ZM82.5028 27.3107C82.2915 27.8412 82.0061 28.4407 81.6469 29.1091C81.2981 29.767 80.8701 30.393 80.3628 30.9871C79.8556 31.5707 79.269 32.0641 78.6033 32.4673C77.9376 32.8599 77.1819 33.0562 76.3365 33.0562C75.8927 33.0562 75.4858 32.9818 75.116 32.8333C74.746 32.6954 74.4026 32.4673 74.0856 32.1489C73.7792 31.8306 73.4832 31.4168 73.1979 30.9075C72.9231 30.3983 72.6483 29.7776 72.3736 29.0455C72.3419 28.9394 72.3101 28.8173 72.2785 28.6794C72.2362 28.5415 72.2151 28.393 72.2151 28.2338C72.2151 28.0004 72.2467 27.7563 72.3101 27.5017C72.363 27.2364 72.4687 26.9977 72.6272 26.7855C72.6906 26.7113 72.7646 26.6263 72.8491 26.5308C72.9337 26.4247 73.0235 26.3239 73.1186 26.2285C73.2032 26.1224 73.293 26.0322 73.3881 25.9579C73.4832 25.873 73.5678 25.8146 73.6417 25.7829C73.8108 25.5176 73.9904 25.2205 74.1807 24.8916C74.3709 24.5626 74.5559 24.2231 74.7355 23.873C74.9151 23.5123 75.0842 23.1462 75.2428 22.7748C75.4013 22.4034 75.5281 22.0374 75.6232 21.6767C75.6549 21.5281 75.6813 21.3849 75.7025 21.247C75.7236 21.1091 75.75 20.9923 75.7817 20.8968C75.8028 20.8119 75.8662 20.6846 75.9719 20.5149C76.0776 20.3451 76.1991 20.1594 76.3365 19.9578C76.4845 19.7562 76.6324 19.5493 76.7804 19.3371C76.9389 19.1249 77.0816 18.9393 77.2084 18.7801C77.388 18.5361 77.5412 18.361 77.6681 18.2549C77.7949 18.1488 77.9217 18.0957 78.0485 18.0957C78.1965 18.0957 78.3127 18.1435 78.3972 18.2389C78.4923 18.3239 78.54 18.414 78.54 18.5096C78.54 18.5944 78.5241 18.6793 78.4923 18.7642C78.4607 18.8491 78.4448 19.0029 78.4448 19.2257C78.4448 19.4273 78.4607 19.6607 78.4923 19.926C78.5241 20.1913 78.5822 20.4724 78.6667 20.7695C78.7196 20.9923 78.8041 21.3531 78.9203 21.8518C79.0366 22.3398 79.1528 22.8969 79.269 23.5229C79.3853 24.1489 79.4857 24.8067 79.5702 25.4964C79.6654 26.186 79.7129 26.8332 79.7129 27.438C79.7129 27.7563 79.6654 28.1065 79.5702 28.4884C79.4857 28.8598 79.3589 29.2364 79.1899 29.6184C79.0313 29.9897 78.8358 30.3505 78.6033 30.7007C78.3708 31.0402 78.1119 31.3373 77.8265 31.5919C78.3021 31.5495 78.7301 31.4116 79.1106 31.1781C79.491 30.9447 79.845 30.6317 80.1726 30.2391C80.5108 29.8465 80.8279 29.385 81.1237 28.8545C81.4196 28.324 81.7155 27.7351 82.0115 27.0879C82.096 26.9181 82.1911 26.8332 82.2968 26.8332C82.3707 26.8332 82.4341 26.8545 82.487 26.8969C82.5398 26.9393 82.5662 27.003 82.5662 27.0879C82.5662 27.1516 82.5451 27.2258 82.5028 27.3107ZM76.5267 22.2974C76.3682 22.5732 76.1885 22.8809 75.9878 23.2205C75.7975 23.56 75.5968 23.9155 75.3854 24.2868C75.174 24.6476 74.9627 25.0136 74.7514 25.3849C74.54 25.7563 74.3392 26.1065 74.149 26.4354C74.2336 26.6688 74.3181 26.934 74.4026 27.2311C74.4871 27.5282 74.577 27.8147 74.6721 28.0906C74.7672 28.377 74.8676 28.6794 74.9733 28.9977C75.0895 29.316 75.2163 29.629 75.3537 29.9368C75.5017 30.2338 75.6707 30.5097 75.8609 30.7643C76.0512 31.0083 76.2837 31.2046 76.5585 31.3532C76.8227 30.9925 77.0181 30.5786 77.145 30.1118C77.2718 29.645 77.3352 29.1887 77.3352 28.7431C77.3352 28.1596 77.3246 27.6184 77.3035 27.1197C77.2823 26.6104 77.24 26.1065 77.1766 25.6078C77.1238 25.1091 77.0445 24.5945 76.9389 24.064C76.8332 23.5335 76.6958 22.9446 76.5267 22.2974ZM91.6332 27.3107C91.4221 27.8412 91.1363 28.4407 90.7774 29.1091C90.4284 29.767 90.0006 30.393 89.4934 30.9871C88.9861 31.5707 88.3996 32.0641 87.7339 32.4673C87.0681 32.8599 86.3125 33.0562 85.4671 33.0562C85.0232 33.0562 84.6164 32.9818 84.2465 32.8333C83.8766 32.6954 83.5332 32.4673 83.2162 32.1489C82.9097 31.8306 82.6138 31.4168 82.3284 30.9075C82.0537 30.3983 81.7789 29.7776 81.5042 29.0455C81.4725 28.9394 81.4407 28.8173 81.4091 28.6794C81.3668 28.5415 81.3457 28.393 81.3457 28.2338C81.3457 28.0004 81.3773 27.7563 81.4407 27.5017C81.4936 27.2364 81.5993 26.9977 81.7578 26.7855C81.8212 26.7113 81.8952 26.6263 81.9797 26.5308C82.0643 26.4247 82.1541 26.3239 82.2492 26.2285C82.3338 26.1224 82.4236 26.0322 82.5187 25.9579C82.6138 25.873 82.6984 25.8146 82.7723 25.7829C82.9414 25.5176 83.121 25.2205 83.3113 24.8916C83.5015 24.5626 83.6864 24.2231 83.8661 23.873C84.0457 23.5123 84.2148 23.1462 84.3733 22.7748C84.5319 22.4034 84.6587 22.0374 84.7538 21.6767C84.7854 21.5281 84.8119 21.3849 84.8331 21.247C84.8542 21.1091 84.8806 20.9923 84.9123 20.8968C84.9334 20.8119 84.9968 20.6846 85.1025 20.5149C85.2082 20.3451 85.3297 20.1594 85.4671 19.9578C85.6151 19.7562 85.763 19.5493 85.911 19.3371C86.0695 19.1249 86.2122 18.9393 86.339 18.7801C86.5186 18.5361 86.6718 18.361 86.7987 18.2549C86.9255 18.1488 87.0523 18.0957 87.1791 18.0957C87.327 18.0957 87.4433 18.1435 87.5278 18.2389C87.6229 18.3239 87.6705 18.414 87.6705 18.5096C87.6705 18.5944 87.6547 18.6793 87.6229 18.7642C87.5913 18.8491 87.5754 19.0029 87.5754 19.2257C87.5754 19.4273 87.5913 19.6607 87.6229 19.926C87.6547 20.1913 87.7127 20.4724 87.7973 20.7695C87.8502 20.9923 87.9347 21.3531 88.0509 21.8518C88.1671 22.3398 88.2834 22.8969 88.3996 23.5229C88.5159 24.1489 88.6163 24.8067 88.7008 25.4964C88.796 26.186 88.8435 26.8332 88.8435 27.438C88.8435 27.7563 88.796 28.1065 88.7008 28.4884C88.6163 28.8598 88.4895 29.2364 88.3204 29.6184C88.1619 29.9897 87.9664 30.3505 87.7339 30.7007C87.5014 31.0402 87.2424 31.3373 86.9571 31.5919C87.4327 31.5495 87.8607 31.4116 88.2412 31.1781C88.6216 30.9447 88.9756 30.6317 89.3032 30.2391C89.6414 29.8465 89.9585 29.385 90.2543 28.8545C90.5501 28.324 90.8459 27.7351 91.1417 27.0879C91.2264 26.9181 91.322 26.8332 91.4276 26.8332C91.5015 26.8332 91.5646 26.8545 91.6178 26.8969C91.6701 26.9393 91.6972 27.003 91.6972 27.0879C91.6972 27.1516 91.6755 27.2258 91.6332 27.3107ZM85.6573 22.2974C85.4988 22.5732 85.3191 22.8809 85.1184 23.2205C84.9281 23.56 84.7274 23.9155 84.516 24.2868C84.3046 24.6476 84.0933 25.0136 83.882 25.3849C83.6706 25.7563 83.4697 26.1065 83.2796 26.4354C83.3641 26.6688 83.4486 26.934 83.5332 27.2311C83.6177 27.5282 83.7075 27.8147 83.8027 28.0906C83.8978 28.377 83.9982 28.6794 84.1039 28.9977C84.2201 29.316 84.3469 29.629 84.4843 29.9368C84.6322 30.2338 84.8013 30.5097 84.9915 30.7643C85.1818 31.0083 85.4143 31.2046 85.689 31.3532C85.9533 30.9925 86.1487 30.5786 86.2756 30.1118C86.4023 29.645 86.4657 29.1887 86.4657 28.7431C86.4657 28.1596 86.4552 27.6184 86.4341 27.1197C86.4129 26.6104 86.3706 26.1065 86.3072 25.6078C86.2544 25.1091 86.1751 24.5945 86.0695 24.064C85.9638 23.5335 85.8264 22.9446 85.6573 22.2974ZM100.082 16.2973C100.082 16.5307 100.013 16.8119 99.8764 17.1408C99.7393 17.4591 99.559 17.7668 99.3371 18.0639C99.1261 18.3504 98.888 18.5944 98.6238 18.796C98.3704 18.9976 98.1224 19.0984 97.8789 19.0984C97.5516 19.0984 97.2711 18.9976 97.0385 18.796C96.8166 18.5944 96.7057 18.3822 96.7057 18.1593C96.7057 18.0639 96.7373 17.9207 96.8013 17.7296C96.8752 17.5387 96.9645 17.3318 97.0709 17.109C97.1863 16.8756 97.3189 16.6422 97.4668 16.4087C97.6255 16.1646 97.7887 15.9472 97.9583 15.7561C98.1377 15.5546 98.3127 15.3954 98.4813 15.2787C98.6608 15.1514 98.8357 15.0878 99.0044 15.0878C99.4273 15.0878 99.7123 15.1885 99.8601 15.3901C100.008 15.5917 100.082 15.8941 100.082 16.2973ZM98.0376 27.3107C97.6679 28.1489 97.2612 28.9182 96.8166 29.6184C96.3838 30.3081 95.9347 30.9023 95.4694 31.4009C95.0049 31.889 94.5234 32.271 94.0274 32.5469C93.5413 32.8228 93.0598 32.9606 92.5845 32.9606C92.2256 32.9606 91.919 32.8811 91.6647 32.7219C91.4113 32.5734 91.2057 32.3664 91.047 32.1012C90.8775 31.836 90.7566 31.5283 90.6827 31.1781C90.6087 30.8174 90.5718 30.4301 90.5718 30.0163C90.5718 29.2418 90.6773 28.4778 90.8883 27.7245C91.0993 26.9605 91.3689 26.2178 91.6972 25.4964C92.0353 24.7643 92.415 24.048 92.8379 23.3478C93.2609 22.6475 93.6838 21.9685 94.1059 21.3106C94.2014 21.1514 94.3178 21.0082 94.4548 20.8809C94.5928 20.7536 94.7245 20.69 94.8516 20.69C95.0311 20.69 95.2105 20.7217 95.39 20.7854C95.5704 20.849 95.7336 20.934 95.8815 21.0401C96.0294 21.1356 96.1457 21.247 96.2305 21.3743C96.3251 21.491 96.3729 21.613 96.3729 21.7403C96.3729 21.8889 96.2837 22.1329 96.1033 22.4724C95.9239 22.812 95.6966 23.2205 95.4216 23.6979C95.1474 24.1648 94.8516 24.6847 94.5342 25.2576C94.2276 25.8306 93.9372 26.4247 93.6622 27.0401C93.388 27.6555 93.1608 28.2763 92.9804 28.9023C92.801 29.5177 92.7117 30.1065 92.7117 30.6688C92.7117 30.8068 92.7162 30.9447 92.727 31.0827C92.7487 31.21 92.7856 31.3267 92.8379 31.4328C92.902 31.5283 92.9912 31.6079 93.1076 31.6715C93.2347 31.7246 93.4034 31.7511 93.6153 31.7511C93.8371 31.7511 94.1113 31.6185 94.4395 31.3532C94.7777 31.0879 95.1258 30.7378 95.4856 30.3028C95.8553 29.8572 96.2196 29.3585 96.5795 28.8067C96.9492 28.2444 97.2711 27.6714 97.5462 27.0879C97.6309 26.9181 97.7256 26.8332 97.8311 26.8332C97.9051 26.8332 97.9691 26.8545 98.0214 26.8969C98.0746 26.9393 98.1008 27.003 98.1008 27.0879C98.1008 27.1516 98.08 27.2258 98.0376 27.3107Z" fill="white"/>
<path d="M38.185 47.8592C38.185 47.4584 38.1803 47.1093 38.1709 46.8123C38.1615 46.5105 38.1474 46.2511 38.1286 46.0343C38.1098 45.8126 38.0864 45.6286 38.0582 45.4825C38.0347 45.3363 38.0088 45.2137 37.9807 45.1146V45.0864C38.0747 45.0911 38.1732 45.0934 38.2766 45.0934C38.3658 45.0982 38.4644 45.1005 38.5724 45.1005C38.6852 45.1005 38.8002 45.1005 38.9176 45.1005C39.0868 45.1005 39.3146 45.084 39.6011 45.051C39.8923 45.018 40.2656 45.0015 40.7212 45.0015C41.144 45.0015 41.5338 45.058 41.8907 45.1712C42.2478 45.2797 42.5554 45.4377 42.8137 45.6452C43.0767 45.8526 43.281 46.1097 43.4266 46.4162C43.5769 46.718 43.652 47.0623 43.652 47.4489C43.652 47.7743 43.6075 48.0666 43.5182 48.326C43.429 48.5806 43.3021 48.8046 43.1377 48.998C42.9781 49.1866 42.7832 49.347 42.553 49.479C42.3276 49.6064 42.0787 49.7077 41.8062 49.7832C42.2055 49.8445 42.5694 49.9482 42.8982 50.0944C43.227 50.2359 43.5088 50.4151 43.7436 50.632C43.9832 50.8489 44.1664 51.1035 44.2932 51.3959C44.4247 51.6835 44.4904 52.0042 44.4904 52.3579C44.4904 53.3529 44.1641 54.1003 43.5112 54.6002C42.8583 55.0954 41.8814 55.3429 40.5804 55.3429C40.4395 55.3429 40.2751 55.3358 40.0872 55.3217C39.8993 55.3122 39.7067 55.3004 39.5095 55.2863C39.317 55.2722 39.1267 55.258 38.9388 55.2439C38.751 55.2344 38.5866 55.2297 38.4457 55.2297H37.9807V55.2015C38.0088 55.1024 38.0347 54.9798 38.0582 54.8336C38.0864 54.6874 38.1098 54.5059 38.1286 54.2889C38.1474 54.0721 38.1615 53.815 38.1709 53.518C38.1803 53.2161 38.185 52.8648 38.185 52.464V47.8592ZM40.7705 50.2146C40.4512 50.2146 40.1835 50.2265 39.9674 50.25C39.7513 50.2735 39.5846 50.2972 39.4672 50.3207V52.464C39.4672 53.0157 39.4766 53.4708 39.4954 53.8292C39.5142 54.1876 39.5401 54.48 39.5729 54.7063C39.7513 54.7299 39.9298 54.7511 40.1084 54.77C40.2868 54.7888 40.43 54.7982 40.5381 54.7982C41.4164 54.7982 42.0575 54.6026 42.4614 54.2112C42.8701 53.815 43.0743 53.2091 43.0743 52.3933C43.0743 52.0726 43.025 51.7802 42.9264 51.5161C42.8325 51.2474 42.6892 51.0163 42.4967 50.8229C42.3088 50.6296 42.0692 50.4811 41.778 50.3773C41.4915 50.2688 41.1557 50.2146 40.7705 50.2146ZM39.4672 49.6841C39.5988 49.6983 39.7162 49.7077 39.8194 49.7124C39.9228 49.7124 40.0332 49.7124 40.1506 49.7124C40.47 49.7124 40.7612 49.6676 41.0242 49.578C41.2873 49.4837 41.5103 49.3446 41.6935 49.1607C41.8814 48.9768 42.027 48.748 42.1303 48.4746C42.2336 48.1964 42.2853 47.8733 42.2853 47.5055C42.2853 47.199 42.2478 46.9207 42.1726 46.6708C42.0974 46.4209 41.9847 46.2087 41.8344 46.0343C41.6888 45.855 41.5079 45.7183 41.292 45.6239C41.0759 45.5297 40.8293 45.4825 40.5522 45.4825C40.3737 45.4825 40.2164 45.4896 40.0801 45.5037C39.9487 45.5178 39.8359 45.5344 39.742 45.5532C39.6339 45.572 39.5424 45.5957 39.4672 45.6239V49.6841ZM53.311 47.8592C53.311 47.4584 53.3064 47.1093 53.297 46.8123C53.2875 46.5105 53.2734 46.2511 53.2547 46.0343C53.2359 45.8126 53.2147 45.6286 53.1913 45.4825C53.1678 45.3363 53.142 45.2137 53.1137 45.1146V45.0864H54.3679V45.1146C54.3396 45.2137 54.3115 45.3363 54.2833 45.4825C54.2598 45.6286 54.2386 45.8126 54.2199 46.0343C54.2058 46.2511 54.1917 46.5105 54.1776 46.8123C54.1682 47.1093 54.1635 47.4584 54.1635 47.8592V51.6788C54.1635 52.3532 54.0672 52.9285 53.8747 53.4048C53.682 53.881 53.4144 54.2725 53.0715 54.5789C52.7287 54.8808 52.3176 55.1001 51.8386 55.2368C51.3595 55.3783 50.8358 55.449 50.2675 55.449C49.6992 55.449 49.1684 55.383 48.6753 55.2509C48.1868 55.1189 47.7594 54.9067 47.3931 54.6143C47.0314 54.3173 46.7472 53.9353 46.5406 53.4684C46.3339 52.9969 46.2306 52.4239 46.2306 51.7495V47.8592C46.2306 47.4584 46.2259 47.1093 46.2165 46.8123C46.2071 46.5105 46.1931 46.2511 46.1742 46.0343C46.1555 45.8126 46.1319 45.6286 46.1038 45.4825C46.0803 45.3363 46.0545 45.2137 46.0263 45.1146V45.0864H47.7172V45.1146C47.689 45.2137 47.6608 45.3363 47.6326 45.4825C47.6091 45.6286 47.588 45.8126 47.5692 46.0343C47.5504 46.2511 47.5363 46.5105 47.5269 46.8123C47.5175 47.1093 47.5128 47.4584 47.5128 47.8592V51.8274C47.5128 52.3886 47.595 52.853 47.7594 53.2208C47.9285 53.584 48.1492 53.874 48.4217 54.0909C48.6941 54.3031 49.004 54.4516 49.3517 54.5366C49.6992 54.6214 50.0538 54.6639 50.4154 54.6639C50.7771 54.6639 51.1317 54.6214 51.4793 54.5366C51.8269 54.4516 52.1345 54.3031 52.4022 54.0909C52.6747 53.874 52.893 53.584 53.0574 53.2208C53.2265 52.853 53.311 52.3886 53.311 51.8274V47.8592ZM57.8129 52.464C57.8129 52.8648 57.8176 53.2161 57.827 53.518C57.8411 53.815 57.8551 54.0721 57.8693 54.2889C57.8881 54.5059 57.9092 54.6874 57.9327 54.8336C57.9608 54.9798 57.9891 55.1024 58.0172 55.2015V55.2297H56.3263V55.2015C56.3546 55.1024 56.3804 54.9798 56.4039 54.8336C56.432 54.6874 56.4532 54.5059 56.4673 54.2889C56.4861 54.0721 56.5001 53.815 56.5096 53.518C56.5237 53.2208 56.5307 52.8695 56.5307 52.464V47.8592C56.5307 47.4584 56.5237 47.1093 56.5096 46.8123C56.5001 46.5105 56.4861 46.2511 56.4673 46.0343C56.4532 45.8173 56.432 45.6357 56.4039 45.4896C56.3804 45.3386 56.3546 45.2137 56.3263 45.1146V45.0864L56.6223 45.1146C56.7115 45.1241 56.8102 45.1312 56.9182 45.1359C57.0309 45.1359 57.146 45.1359 57.2634 45.1359C57.4465 45.1359 57.6932 45.1146 58.0031 45.0722C58.3179 45.0251 58.7171 45.0015 59.2008 45.0015C59.6517 45.0015 60.0674 45.0628 60.4478 45.1853C60.8329 45.308 61.1664 45.4872 61.4482 45.723C61.73 45.9587 61.9484 46.2487 62.1035 46.593C62.2632 46.9325 62.343 47.3192 62.343 47.7531C62.343 48.0926 62.2983 48.4085 62.2091 48.7009C62.1246 48.9886 62.0025 49.2503 61.8428 49.486C61.6877 49.7219 61.4999 49.9317 61.2791 50.1156C61.0584 50.2948 60.8118 50.4457 60.5394 50.5683L63.0123 54.0555C63.1344 54.23 63.2471 54.3809 63.3504 54.5082C63.4585 54.6356 63.5595 54.7463 63.6534 54.8407C63.752 54.9303 63.846 55.0057 63.9352 55.067C64.0244 55.1236 64.1161 55.1684 64.2099 55.2015V55.2297H62.1739C62.1598 55.1401 62.1128 55.0222 62.033 54.8761C61.9578 54.7252 61.8686 54.5766 61.7653 54.4304L59.2713 50.9008C59.1633 50.9102 59.0552 50.9196 58.9472 50.9291C58.8392 50.9338 58.7288 50.9361 58.6161 50.9361C58.4846 50.9361 58.3507 50.9314 58.2145 50.922C58.083 50.9126 57.9491 50.896 57.8129 50.8725V52.464ZM57.8129 50.3207C57.9397 50.3491 58.0689 50.3702 58.2004 50.3844C58.3319 50.3939 58.4587 50.3986 58.5808 50.3986C58.9331 50.3986 59.2548 50.3467 59.546 50.2429C59.8373 50.1345 60.0838 49.9718 60.2858 49.7548C60.4924 49.5379 60.6521 49.2692 60.7648 48.9485C60.8776 48.6231 60.9339 48.2435 60.9339 47.8097C60.9339 47.456 60.894 47.1353 60.8142 46.8477C60.7344 46.56 60.6145 46.3171 60.4549 46.1191C60.2999 45.9163 60.1026 45.7607 59.8631 45.6523C59.6235 45.5391 59.3441 45.4825 59.0247 45.4825C58.7007 45.4825 58.4423 45.499 58.2498 45.532C58.0571 45.565 57.9116 45.6004 57.8129 45.6381V50.3207ZM73.7421 54.0414C73.7421 54.0933 73.7351 54.1475 73.721 54.2041C73.7116 54.2607 73.6857 54.3079 73.6435 54.3455C73.4321 54.5059 73.202 54.6544 72.953 54.7912C72.7088 54.9233 72.4434 55.0388 72.1569 55.1377C71.8704 55.2368 71.5605 55.3122 71.227 55.3641C70.8982 55.4207 70.5436 55.449 70.1632 55.449C69.3084 55.449 68.5287 55.3241 67.8241 55.0741C67.1196 54.8195 66.5137 54.461 66.0065 53.9989C65.5039 53.5368 65.1141 52.9827 64.837 52.3367C64.5598 51.6859 64.4213 50.9645 64.4213 50.1722C64.4213 49.7242 64.4777 49.2833 64.5904 48.8494C64.7078 48.4157 64.8769 48.003 65.0977 47.6116C65.3184 47.2202 65.5908 46.8618 65.9149 46.5364C66.239 46.2064 66.6077 45.9211 67.021 45.6805C67.4391 45.44 67.897 45.2538 68.3949 45.1217C68.8973 44.985 69.4398 44.9166 70.0222 44.9166C70.2477 44.9166 70.4778 44.9284 70.7127 44.9519C70.9475 44.9709 71.18 45.0015 71.4102 45.0439C71.6403 45.0817 71.861 45.1289 72.0724 45.1853C72.2885 45.242 72.4928 45.3057 72.6854 45.3764L73.1644 46.685L73.108 46.7133C72.9249 46.5483 72.7135 46.395 72.474 46.2535C72.2345 46.112 71.9785 45.9894 71.706 45.8857C71.4336 45.7819 71.1471 45.7018 70.8465 45.6452C70.5507 45.5839 70.25 45.5532 69.9448 45.5532C69.3529 45.5532 68.8105 45.6476 68.3173 45.8362C67.8241 46.02 67.3991 46.2889 67.0422 46.6425C66.6899 46.9962 66.4151 47.43 66.2179 47.944C66.0205 48.458 65.922 49.0428 65.922 49.6982C65.922 50.4198 66.0159 51.0894 66.2038 51.7072C66.3916 52.3249 66.6711 52.8601 67.0422 53.3128C67.4132 53.7655 67.8758 54.1215 68.43 54.3809C68.989 54.6356 69.6395 54.7629 70.3816 54.7629C70.7104 54.7629 71.0039 54.7369 71.2622 54.685C71.5205 54.6332 71.7389 54.5695 71.9174 54.4941C72.0959 54.414 72.2298 54.329 72.319 54.2394C72.4129 54.1452 72.4599 54.0602 72.4599 53.9848V53.7089C72.4599 53.3788 72.4552 53.0935 72.4458 52.853C72.4364 52.6126 72.4223 52.4051 72.4036 52.2306C72.3847 52.0514 72.3636 51.8981 72.3402 51.7708C72.3166 51.6435 72.2885 51.5256 72.2556 51.4172V51.3888H73.9464V51.4172C73.9183 51.5161 73.8901 51.634 73.8618 51.7708C73.8384 51.9028 73.8173 52.0608 73.7984 52.2447C73.7797 52.4286 73.7656 52.6455 73.7562 52.8955C73.7468 53.1407 73.7421 53.426 73.7421 53.7514V54.0414ZM82.7882 47.8592C82.7882 47.4584 82.7835 47.1093 82.7741 46.8123C82.7646 46.5105 82.7506 46.2511 82.7318 46.0343C82.7131 45.8126 82.6919 45.6286 82.6684 45.4825C82.6449 45.3363 82.6191 45.2137 82.5909 45.1146V45.0864H83.845V45.1146C83.8167 45.2137 83.7886 45.3363 83.7604 45.4825C83.7369 45.6286 83.7157 45.8126 83.697 46.0343C83.6829 46.2511 83.6688 46.5105 83.6547 46.8123C83.6453 47.1093 83.6406 47.4584 83.6406 47.8592V51.6788C83.6406 52.3532 83.5443 52.9285 83.3518 53.4048C83.1592 53.881 82.8915 54.2725 82.5487 54.5789C82.2058 54.8808 81.7948 55.1001 81.3157 55.2368C80.8366 55.3783 80.313 55.449 79.7446 55.449C79.1763 55.449 78.6455 55.383 78.1525 55.2509C77.664 55.1189 77.2365 54.9067 76.8702 54.6143C76.5085 54.3173 76.2243 53.9353 76.0177 53.4684C75.8111 52.9969 75.7077 52.4239 75.7077 51.7495V47.8592C75.7077 47.4584 75.703 47.1093 75.6936 46.8123C75.6843 46.5105 75.6702 46.2511 75.6513 46.0343C75.6326 45.8126 75.6091 45.6286 75.5809 45.4825C75.5575 45.3363 75.5316 45.2137 75.5035 45.1146V45.0864H77.1943V45.1146C77.1661 45.2137 77.1379 45.3363 77.1097 45.4825C77.0863 45.6286 77.0651 45.8126 77.0463 46.0343C77.0276 46.2511 77.0134 46.5105 77.004 46.8123C76.9946 47.1093 76.99 47.4584 76.99 47.8592V51.8274C76.99 52.3886 77.0721 52.853 77.2365 53.2208C77.4056 53.584 77.6263 53.874 77.8988 54.0909C78.1712 54.3031 78.4812 54.4516 78.8288 54.5366C79.1763 54.6214 79.5309 54.6639 79.8926 54.6639C80.2542 54.6639 80.6088 54.6214 80.9564 54.5366C81.304 54.4516 81.6116 54.3031 81.8793 54.0909C82.1518 53.874 82.3701 53.584 82.5345 53.2208C82.7036 52.853 82.7882 52.3886 82.7882 51.8274V47.8592ZM85.8035 45.0864C86.3906 45.0864 86.973 45.084 87.5507 45.0793C88.1331 45.0746 88.6662 45.0698 89.15 45.0651C89.6337 45.0557 90.0471 45.0439 90.3896 45.0298C90.7332 45.0157 90.9649 44.9968 91.0876 44.9732L90.7422 45.9139C90.5871 45.8716 90.4067 45.8338 90.1993 45.8008C90.0212 45.7725 89.8028 45.7465 89.5445 45.723C89.2909 45.6947 88.9973 45.6805 88.6638 45.6805C88.5511 45.6805 88.415 45.6852 88.2552 45.6947C88.1002 45.6994 87.9499 45.7065 87.8044 45.7159C87.6353 45.7253 87.4638 45.7347 87.2901 45.7442V49.6064C87.7738 49.6016 88.2106 49.5874 88.6004 49.5639C88.9903 49.5403 89.3214 49.5167 89.5939 49.4932C89.9132 49.4648 90.1948 49.4319 90.4392 49.3941L90.221 50.4198C89.8968 50.3773 89.5656 50.3373 89.2275 50.2995C88.9363 50.2665 88.6192 50.2382 88.2763 50.2146C87.9335 50.1864 87.6047 50.1722 87.2901 50.1722V54.6073C87.8443 54.6073 88.3539 54.5837 88.8189 54.5366C89.2838 54.4894 89.6901 54.4352 90.0377 54.3739C90.4419 54.3079 90.8107 54.23 91.1435 54.1404L90.9397 55.2863C90.8829 55.2816 90.799 55.2769 90.6854 55.2722C90.5736 55.2675 90.4464 55.2628 90.3057 55.258C90.1692 55.2533 90.0236 55.2486 89.8685 55.2439C89.7183 55.2439 89.575 55.2415 89.4388 55.2368C89.3026 55.2368 89.1805 55.2344 89.0724 55.2297C88.9692 55.2297 88.894 55.2297 88.847 55.2297H85.8035V55.2015C85.8317 55.1024 85.8575 54.9798 85.881 54.8336C85.9092 54.6874 85.9327 54.5059 85.9515 54.2889C85.9702 54.0721 85.9844 53.815 85.9937 53.518C86.0031 53.2161 86.0078 52.8648 86.0078 52.464V47.8592C86.0078 47.4584 86.0031 47.1093 85.9937 46.8123C85.9844 46.5105 85.9702 46.2511 85.9515 46.0343C85.9327 45.8126 85.9092 45.6286 85.881 45.4825C85.8575 45.3363 85.8317 45.2137 85.8035 45.1146V45.0864ZM94.3638 52.464C94.3638 52.8648 94.3683 53.2161 94.3773 53.518C94.3917 53.815 94.4061 54.0721 94.4197 54.2889C94.4386 54.5059 94.4594 54.6874 94.4828 54.8336C94.5117 54.9798 94.5396 55.1024 94.5676 55.2015V55.2297H92.8767V55.2015C92.9047 55.1024 92.9308 54.9798 92.9543 54.8336C92.9822 54.6874 93.0039 54.5059 93.0174 54.2889C93.0363 54.0721 93.0508 53.815 93.0598 53.518C93.0742 53.2208 93.0814 52.8695 93.0814 52.464V47.8592C93.0814 47.4584 93.0742 47.1093 93.0598 46.8123C93.0508 46.5105 93.0363 46.2511 93.0174 46.0343C93.0039 45.8173 92.9822 45.6357 92.9543 45.4896C92.9308 45.3386 92.9047 45.2137 92.8767 45.1146V45.0864L93.1725 45.1146C93.2618 45.1241 93.361 45.1312 93.4683 45.1359C93.581 45.1359 93.6964 45.1359 93.8137 45.1359C93.9967 45.1359 94.2438 45.1146 94.554 45.0722C94.8688 45.0251 95.2674 45.0015 95.7516 45.0015C96.2025 45.0015 96.6182 45.0628 96.9979 45.1853C97.3838 45.308 97.7166 45.4872 97.9989 45.723C98.2802 45.9587 98.4994 46.2487 98.6536 46.593C98.8141 46.9325 98.8934 47.3192 98.8934 47.7531C98.8934 48.0926 98.8492 48.4085 98.76 48.7009C98.6752 48.9886 98.5526 49.2503 98.3929 49.486C98.2387 49.7219 98.0503 49.9317 97.8293 50.1156C97.6093 50.2948 97.3622 50.4457 97.0899 50.5683L99.5626 54.0555C99.6852 54.23 99.7979 54.3809 99.9007 54.5082C100.009 54.6356 100.11 54.7463 100.204 54.8407C100.303 54.9303 100.397 55.0057 100.486 55.067C100.575 55.1236 100.666 55.1684 100.76 55.2015V55.2297H98.7248C98.7104 55.1401 98.6635 55.0222 98.5832 54.8761C98.5084 54.7252 98.4191 54.5766 98.3154 54.4304L95.822 50.9008C95.7137 50.9102 95.6055 50.9196 95.4973 50.9291C95.39 50.9338 95.2791 50.9361 95.1663 50.9361C95.0347 50.9361 94.9012 50.9314 94.7651 50.922C94.6334 50.9126 94.4999 50.896 94.3638 50.8725V52.464ZM94.3638 50.3207C94.49 50.3491 94.619 50.3702 94.7506 50.3844C94.8823 50.3939 95.0094 50.3986 95.1312 50.3986C95.4838 50.3986 95.8057 50.3467 96.0961 50.2429C96.3874 50.1345 96.6345 49.9718 96.8365 49.7548C97.043 49.5379 97.2026 49.2692 97.3153 48.9485C97.428 48.6231 97.4848 48.2435 97.4848 47.8097C97.4848 47.456 97.4443 47.1353 97.3649 46.8477C97.2846 46.56 97.1647 46.3171 97.0051 46.1191C96.85 45.9163 96.6534 45.7607 96.4135 45.6523C96.1736 45.5391 95.895 45.4825 95.5749 45.4825C95.2511 45.4825 94.9932 45.499 94.8002 45.532C94.6072 45.565 94.4621 45.6004 94.3638 45.6381V50.3207Z" fill="white"/>
<path d="M24.1228 54.098L28.9474 49.254C29.2287 48.9717 29.5626 48.7478 29.9301 48.595C30.2976 48.4423 30.6914 48.3637 31.0892 48.3638H31.2619C32.0193 48.3638 32.7456 48.6658 33.2811 49.2035C33.8167 49.7412 34.1175 50.4705 34.1175 51.2309C34.1175 51.9913 33.8167 52.7206 33.2811 53.2582C32.7456 53.7959 32.0193 54.098 31.2619 54.098H8.41665C7.65929 54.098 6.93295 53.7959 6.3974 53.2582C5.86187 52.7206 5.561 51.9913 5.561 51.2309C5.561 50.4705 5.86187 49.7412 6.3974 49.2035C6.93295 48.6658 7.65929 48.3638 8.41665 48.3638H14.8633C17.135 48.3639 19.3136 49.2699 20.9202 50.8825L24.1228 54.098ZM6.98883 54.098H32.6897V56.9651C32.6897 58.1057 32.2384 59.1996 31.4351 60.0061C30.6318 60.8126 29.5423 61.2658 28.4062 61.2658H11.2723C10.1363 61.2658 9.04671 60.8126 8.24343 60.0061C7.44012 59.1996 6.98883 58.1057 6.98883 56.9651V54.098Z" stroke="white" stroke-width="2" stroke-linecap="round" stroke-linejoin="round"/>
<path d="M24.1242 42.6295H24.1228M19.8407 44.0631H19.8393M19.8393 38.3288C13.2384 38.3288 7.79982 40.8462 7.07163 46.9301C6.97739 47.7187 7.62848 48.3638 8.41664 48.3638H31.2618C32.05 48.3638 32.7011 47.7187 32.6069 46.9301C31.8787 40.8462 26.4401 38.3288 19.8393 38.3288Z" stroke="white" stroke-width="2" stroke-linecap="round" stroke-linejoin="round"/>
</svg>
